<mxfile modified="2023-08-25T13:51:06.681Z" host="app.diagrams.net" agent="Mozilla/5.0 (Windows NT 10.0; Win64; x64) AppleWebKit/537.36 (KHTML, like Gecko) Chrome/116.0.0.0 Safari/537.36" etag="zMHuWnMmxQk1pLoPU2w_" version="21.6.9" type="device">
  <diagram id="Ht1M8jgEwFfnCIfOTk4-" name="Page-1">
    <mxGraphModel dx="1434" dy="750" grid="1" gridSize="10" guides="1" tooltips="1" connect="1" arrows="1" fold="1" page="1" pageScale="1" pageWidth="1169" pageHeight="827" math="0" shadow="0">
      <root>
        <mxCell id="0" />
        <mxCell id="1" parent="0" />
        <mxCell id="UEzPUAAOIrF-is8g5C7q-74" value="AWS Cloud" style="points=[[0,0],[0.25,0],[0.5,0],[0.75,0],[1,0],[1,0.25],[1,0.5],[1,0.75],[1,1],[0.75,1],[0.5,1],[0.25,1],[0,1],[0,0.75],[0,0.5],[0,0.25]];outlineConnect=0;gradientColor=none;html=1;whiteSpace=wrap;fontSize=12;fontStyle=0;shape=mxgraph.aws4.group;grIcon=mxgraph.aws4.group_aws_cloud_alt;strokeColor=#232F3E;fillColor=none;verticalAlign=top;align=left;spacingLeft=30;fontColor=#232F3E;dashed=0;labelBackgroundColor=#ffffff;container=1;pointerEvents=0;collapsible=0;recursiveResize=0;" parent="1" vertex="1">
          <mxGeometry x="230" y="80" width="780" height="650" as="geometry" />
        </mxCell>
        <mxCell id="ylUKER3mSCWB3Y8iSunq-5" value="Pipeline Generator" style="outlineConnect=0;dashed=0;verticalLabelPosition=bottom;verticalAlign=top;align=center;html=1;shape=mxgraph.aws3.codepipeline;fillColor=#759C3E;gradientColor=none;" parent="UEzPUAAOIrF-is8g5C7q-74" vertex="1">
          <mxGeometry x="300" y="90" width="67.5" height="81" as="geometry" />
        </mxCell>
        <mxCell id="ylUKER3mSCWB3Y8iSunq-6" value="CFN Template Pipeline" style="outlineConnect=0;dashed=0;verticalLabelPosition=bottom;verticalAlign=top;align=center;html=1;shape=mxgraph.aws3.codepipeline;fillColor=#759C3E;gradientColor=none;" parent="UEzPUAAOIrF-is8g5C7q-74" vertex="1">
          <mxGeometry x="300" y="253" width="67.5" height="81" as="geometry" />
        </mxCell>
        <mxCell id="ylUKER3mSCWB3Y8iSunq-7" value="" style="endArrow=classic;html=1;rounded=0;" parent="UEzPUAAOIrF-is8g5C7q-74" source="ylUKER3mSCWB3Y8iSunq-5" target="ylUKER3mSCWB3Y8iSunq-6" edge="1">
          <mxGeometry width="50" height="50" relative="1" as="geometry">
            <mxPoint x="330" y="330" as="sourcePoint" />
            <mxPoint x="380" y="280" as="targetPoint" />
          </mxGeometry>
        </mxCell>
        <mxCell id="ylUKER3mSCWB3Y8iSunq-8" value="n CFN Pipelines" style="outlineConnect=0;dashed=0;verticalLabelPosition=bottom;verticalAlign=top;align=center;html=1;shape=mxgraph.aws3.codepipeline;fillColor=#759C3E;gradientColor=none;" parent="UEzPUAAOIrF-is8g5C7q-74" vertex="1">
          <mxGeometry x="300" y="380" width="67.5" height="81" as="geometry" />
        </mxCell>
        <mxCell id="ylUKER3mSCWB3Y8iSunq-9" value="" style="endArrow=classic;html=1;rounded=0;" parent="UEzPUAAOIrF-is8g5C7q-74" source="ylUKER3mSCWB3Y8iSunq-6" target="ylUKER3mSCWB3Y8iSunq-8" edge="1">
          <mxGeometry width="50" height="50" relative="1" as="geometry">
            <mxPoint x="344" y="181" as="sourcePoint" />
            <mxPoint x="344" y="263" as="targetPoint" />
          </mxGeometry>
        </mxCell>
        <mxCell id="ylUKER3mSCWB3Y8iSunq-13" value="" style="outlineConnect=0;dashed=0;verticalLabelPosition=bottom;verticalAlign=top;align=center;html=1;shape=mxgraph.aws3.lambda_function;fillColor=#F58534;gradientColor=none;" parent="UEzPUAAOIrF-is8g5C7q-74" vertex="1">
          <mxGeometry x="593.75" y="520" width="69" height="72" as="geometry" />
        </mxCell>
        <mxCell id="ylUKER3mSCWB3Y8iSunq-14" value="" style="outlineConnect=0;dashed=0;verticalLabelPosition=bottom;verticalAlign=top;align=center;html=1;shape=mxgraph.aws3.s3;fillColor=#E05243;gradientColor=none;" parent="UEzPUAAOIrF-is8g5C7q-74" vertex="1">
          <mxGeometry x="610" y="420" width="76.5" height="93" as="geometry" />
        </mxCell>
        <mxCell id="ylUKER3mSCWB3Y8iSunq-15" value="" style="endArrow=classic;html=1;rounded=0;" parent="UEzPUAAOIrF-is8g5C7q-74" source="ylUKER3mSCWB3Y8iSunq-8" target="ylUKER3mSCWB3Y8iSunq-14" edge="1">
          <mxGeometry width="50" height="50" relative="1" as="geometry">
            <mxPoint x="330" y="330" as="sourcePoint" />
            <mxPoint x="380" y="280" as="targetPoint" />
          </mxGeometry>
        </mxCell>
        <mxCell id="ylUKER3mSCWB3Y8iSunq-25" value="" style="endArrow=classic;html=1;rounded=0;" parent="UEzPUAAOIrF-is8g5C7q-74" source="ylUKER3mSCWB3Y8iSunq-8" target="ylUKER3mSCWB3Y8iSunq-13" edge="1">
          <mxGeometry width="50" height="50" relative="1" as="geometry">
            <mxPoint x="378" y="419" as="sourcePoint" />
            <mxPoint x="600" y="340" as="targetPoint" />
          </mxGeometry>
        </mxCell>
        <mxCell id="ylUKER3mSCWB3Y8iSunq-26" value="Deploys one CFN Template" style="text;html=1;strokeColor=none;fillColor=none;align=center;verticalAlign=middle;whiteSpace=wrap;rounded=0;" parent="UEzPUAAOIrF-is8g5C7q-74" vertex="1">
          <mxGeometry x="426" y="490" width="60" height="30" as="geometry" />
        </mxCell>
        <mxCell id="ylUKER3mSCWB3Y8iSunq-27" value="Deploy this pipeline with the CFN template" style="text;html=1;strokeColor=none;fillColor=none;align=center;verticalAlign=middle;whiteSpace=wrap;rounded=0;" parent="UEzPUAAOIrF-is8g5C7q-74" vertex="1">
          <mxGeometry x="410" y="115.5" width="130" height="30" as="geometry" />
        </mxCell>
        <mxCell id="ylUKER3mSCWB3Y8iSunq-29" value="Creates a template Pipelien for CFN Deployment (not runnable)" style="text;html=1;strokeColor=none;fillColor=none;align=center;verticalAlign=middle;whiteSpace=wrap;rounded=0;" parent="UEzPUAAOIrF-is8g5C7q-74" vertex="1">
          <mxGeometry x="340" y="210" width="160" height="30" as="geometry" />
        </mxCell>
        <mxCell id="ylUKER3mSCWB3Y8iSunq-30" value="Creates n CFN Deployment Pipelines" style="text;html=1;strokeColor=none;fillColor=none;align=center;verticalAlign=middle;whiteSpace=wrap;rounded=0;" parent="UEzPUAAOIrF-is8g5C7q-74" vertex="1">
          <mxGeometry x="410" y="360" width="110" height="30" as="geometry" />
        </mxCell>
        <mxCell id="ylUKER3mSCWB3Y8iSunq-31" value="Resources defined in CFN Templates" style="text;html=1;strokeColor=none;fillColor=none;align=center;verticalAlign=middle;whiteSpace=wrap;rounded=0;" parent="UEzPUAAOIrF-is8g5C7q-74" vertex="1">
          <mxGeometry x="610" y="350" width="110" height="30" as="geometry" />
        </mxCell>
        <mxCell id="j2gSK0mCADAcTq6c6EN0-1" value="Codestar Connection" style="sketch=0;points=[[0,0,0],[0.25,0,0],[0.5,0,0],[0.75,0,0],[1,0,0],[0,1,0],[0.25,1,0],[0.5,1,0],[0.75,1,0],[1,1,0],[0,0.25,0],[0,0.5,0],[0,0.75,0],[1,0.25,0],[1,0.5,0],[1,0.75,0]];outlineConnect=0;fontColor=#232F3E;gradientColor=#4D72F3;gradientDirection=north;fillColor=#3334B9;strokeColor=#ffffff;dashed=0;verticalLabelPosition=bottom;verticalAlign=top;align=center;html=1;fontSize=12;fontStyle=0;aspect=fixed;shape=mxgraph.aws4.resourceIcon;resIcon=mxgraph.aws4.codestar;" vertex="1" parent="UEzPUAAOIrF-is8g5C7q-74">
          <mxGeometry x="60" y="286" width="54" height="54" as="geometry" />
        </mxCell>
        <mxCell id="ylUKER3mSCWB3Y8iSunq-2" value="Git CFN Templates" style="dashed=0;outlineConnect=0;html=1;align=center;labelPosition=center;verticalLabelPosition=bottom;verticalAlign=top;shape=mxgraph.weblogos.github" parent="1" vertex="1">
          <mxGeometry x="45" y="270" width="75" height="75" as="geometry" />
        </mxCell>
        <mxCell id="ylUKER3mSCWB3Y8iSunq-11" value="" style="endArrow=none;dashed=1;html=1;dashPattern=1 3;strokeWidth=2;rounded=0;" parent="1" source="ylUKER3mSCWB3Y8iSunq-2" target="ylUKER3mSCWB3Y8iSunq-8" edge="1">
          <mxGeometry width="50" height="50" relative="1" as="geometry">
            <mxPoint x="130" y="181" as="sourcePoint" />
            <mxPoint x="540" y="217" as="targetPoint" />
            <Array as="points">
              <mxPoint x="320" y="410" />
            </Array>
          </mxGeometry>
        </mxCell>
        <mxCell id="ylUKER3mSCWB3Y8iSunq-12" value="" style="endArrow=none;dashed=1;html=1;dashPattern=1 3;strokeWidth=2;rounded=0;" parent="1" source="j2gSK0mCADAcTq6c6EN0-2" target="ylUKER3mSCWB3Y8iSunq-5" edge="1">
          <mxGeometry width="50" height="50" relative="1" as="geometry">
            <mxPoint x="140" y="191" as="sourcePoint" />
            <mxPoint x="550" y="227" as="targetPoint" />
          </mxGeometry>
        </mxCell>
        <mxCell id="j2gSK0mCADAcTq6c6EN0-3" value="" style="endArrow=none;dashed=1;html=1;dashPattern=1 3;strokeWidth=2;rounded=0;" edge="1" parent="1" source="ylUKER3mSCWB3Y8iSunq-2" target="j2gSK0mCADAcTq6c6EN0-2">
          <mxGeometry width="50" height="50" relative="1" as="geometry">
            <mxPoint x="120" y="300" as="sourcePoint" />
            <mxPoint x="530" y="217" as="targetPoint" />
          </mxGeometry>
        </mxCell>
        <mxCell id="j2gSK0mCADAcTq6c6EN0-2" value="Codestar Connection" style="sketch=0;points=[[0,0,0],[0.25,0,0],[0.5,0,0],[0.75,0,0],[1,0,0],[0,1,0],[0.25,1,0],[0.5,1,0],[0.75,1,0],[1,1,0],[0,0.25,0],[0,0.5,0],[0,0.75,0],[1,0.25,0],[1,0.5,0],[1,0.75,0]];outlineConnect=0;fontColor=#232F3E;gradientColor=#4D72F3;gradientDirection=north;fillColor=#3334B9;strokeColor=#ffffff;dashed=0;verticalLabelPosition=bottom;verticalAlign=top;align=center;html=1;fontSize=12;fontStyle=0;aspect=fixed;shape=mxgraph.aws4.resourceIcon;resIcon=mxgraph.aws4.codestar;" vertex="1" parent="1">
          <mxGeometry x="290" y="240" width="54" height="54" as="geometry" />
        </mxCell>
      </root>
    </mxGraphModel>
  </diagram>
</mxfile>
